<svg data-v-0dd9719b="" version="1.0" xmlns="http://www.w3.org/2000/svg" xmlns:xlink="http://www.w3.org/1999/xlink" width="100%" height="100%" viewBox="0 0 340.000000 250.000000" preserveAspectRatio="xMidYMid meet" color-interpolation-filters="sRGB" style="margin: auto;"> <rect data-v-0dd9719b="" x="0" y="0" width="100%" height="100%" fill="#ffffff" fill-opacity="1" class="background"></rect> <rect data-v-0dd9719b="" x="0" y="0" width="100%" height="100%" fill="url(#watermark)" fill-opacity="1" class="watermarklayer"></rect> <g data-v-0dd9719b="" class="iconmbgsvg" transform="translate(60.30999755859375,75.36468887329102)"><g fill="#cd8c2a" hollow-target="text"><g mask="url(#e556d810-9306-471f-af6f-88d4fa9e2ce2)"><g><rect fill="#cd8c2a" fill-opacity="0" stroke-width="2" x="0" y="0" width="95" height="99.2706221655625" class="image-rect"></rect> <svg x="0" y="0" width="95" height="99.2706221655625" filtersec="colorsb32666552" class="image-svg-svg primary" style="overflow: visible;"><svg viewBox="0 0.531999945640564 190.4739990234375 199.03599548339844" xmlns="http://www.w3.org/2000/svg"><g fill="none" fill-rule="evenodd"><path d="M116.992 179.84c-42.441-1.885-76.273-36.885-76.273-79.791 0-42.907 33.832-77.907 76.273-79.79a80.94 80.94 0 0 0-3.64-.086c-44.114 0-79.875 35.762-79.875 79.876 0 44.114 35.761 79.875 79.875 79.875 1.22 0 2.433-.03 3.64-.084" fill="#1c085d"></path><path d="M113.436 187.04c-48.044 0-86.99-38.947-86.99-86.99 0-48.045 38.946-86.992 86.99-86.992 33.448 0 62.48 18.88 77.038 46.56C174.976 24.806 140.084.532 99.518.532 44.555.531 0 45.087 0 100.05s44.555 99.518 99.518 99.518c40.566 0 75.458-24.274 90.956-59.088-14.557 27.681-43.59 46.561-77.038 46.561" fill="#cd8c2a"></path></g></svg></svg> <!----></g></g> <g transform="translate(41.6199951171875,31.968435287475586)"><g data-gra="path-name" fill-rule="" class="tp-name" transform="translate(0,0)"><g transform="scale(1)"><g><path d="M34.74-25.6L34.74-19.4Q34.74-18.47 34.11-17.84 33.48-17.21 32.54-17.21L32.54-17.21 27.97-17.21 30.38 2.02Q30.49 2.7 31.07 2.84L31.07 2.84 34.52 3.89 34.52 6.05 27.07 4.25Q26.03 3.96 25.36 3.2 24.7 2.45 24.55 1.33L24.55 1.33 22.28-17.21 1.15-17.21 1.15-19.22 22.03-19.22 20.99-27.68 26.68-27.68 27.72-19.22 29.02-19.22Q29.23-19.22 29.39-19.39 29.56-19.55 29.56-19.76L29.56-19.76 29.56-25.6 34.74-25.6ZM19.98-25.81L19.98-23.8 2.74-23.8 2.74-25.81 19.98-25.81ZM17.1-7.49L17.1 2.48 22.9 2.02 22.9 4.03 1.12 5.83 1.12 3.82 2.99 3.67 2.99-12.35 8.68-12.35 8.68 3.2 11.41 2.95 11.41-14.72 17.1-14.72 17.1-9.5 22.25-9.5 22.25-7.49 17.1-7.49ZM41.08-11.99L37.12-19.98 41.94-19.98 38.05-27.79 44.03-27.79 48.02-19.8 43.2-19.8 47.09-11.99 41.08-11.99ZM69.91 3.64L70.96 4.03 70.96 6.05 64.87 4.18Q64.01 3.92 63.5 3.06L63.5 3.06 58.79-4.68 54.43 3.02Q53.96 3.92 52.99 4.25L52.99 4.25 47.12 6.05 47.12 4.03 48.13 3.64Q48.28 3.56 48.4 3.47 48.53 3.38 48.6 3.2L48.6 3.2 55.8-9.65 47.45-23.36 53.28-23.36 58.61-14.65 64.26-24.77Q64.44-25.02 64.3-25.25 64.15-25.49 63.86-25.49L63.86-25.49 47.45-25.49 47.45-27.5 68.04-27.5Q68.69-27.5 69.19-27.22 69.7-26.93 69.97-26.48 70.24-26.03 70.24-25.45 70.24-24.88 69.91-24.3L69.91-24.3 61.63-9.65 69.48 3.24Q69.59 3.42 69.91 3.64L69.91 3.64ZM47.88-11.05L47.88-8.93 46.76-8.35Q46.37-8.14 46.26-7.63L46.26-7.63 42.8 6.05 37.12 6.05 40.43-6.08Q40.75-7.24 41.35-8.06 41.94-8.89 43.02-9.29L43.02-9.29 47.88-11.05ZM106.88-16.74L106.88-14.72 105.16-14.72 105.16-6.3Q105.16-5.36 104.53-4.73 103.9-4.1 102.96-4.1L102.96-4.1 94.82-4.1 94.18 2.05Q94.07 3.1 93.44 3.78 92.81 4.46 91.84 4.68L91.84 4.68 85.25 6.08 85.25 4.07 87.62 3.53Q87.95 3.46 88.16 3.24 88.38 3.02 88.42 2.66L88.42 2.66 89.14-4.1 86.36-4.1 86.36-6.12 89.35-6.12 90.25-14.72 85.28-14.72 85.28-16.74 90.47-16.74 91.4-25.34 86.36-25.34 86.36-27.29 82.19-17.75Q81.58-16.34 80.17-15.77L80.17-15.77 82.84-15.77 82.84 6.05 77.15 6.05 77.15-15.16 73.12-14.47 73.12-16.49 74.81-16.81Q75.74-16.99 76.14-17.86L76.14-17.86 80.75-27.68 86.54-27.68 86.4-27.36 102.96-27.36Q103.9-27.36 104.53-26.73 105.16-26.1 105.16-25.16L105.16-25.16 105.16-16.74 106.88-16.74ZM97.09-25.34L96.16-16.74 99.47-16.74 99.47-24.8Q99.47-25.02 99.31-25.18 99.14-25.34 98.93-25.34L98.93-25.34 97.09-25.34ZM99.47-6.66L99.47-14.72 95.94-14.72 95.04-6.12 98.93-6.12Q99.14-6.12 99.31-6.28 99.47-6.44 99.47-6.66L99.47-6.66ZM122.8-20.34L118.98-20.34 118.98 6.08 113.87 6.08 113.87-20.34 109.62-20.34 109.62-22.36 113.87-22.36 113.87-27.68 118.98-27.68 118.98-22.36 122.8-22.36 122.8-20.34ZM123.08-7.92L130-15.23 127.33-18 123.08-18 126.32-27.68 131.76-27.68 130.86-24.95 139.9-24.95Q140.76-24.95 141.37-24.55 141.98-24.16 142.25-23.54 142.52-22.93 142.42-22.23 142.31-21.53 141.7-20.95L141.7-20.95 135.97-15.19 142.96-7.92 137.02-7.92 132.98-12.13 128.81-7.92 123.08-7.92ZM130.68-20.7L132.95-18.36 136.62-22.25Q136.8-22.46 136.69-22.7 136.58-22.93 136.3-22.93L136.3-22.93 130.18-22.93 129.42-20.7 130.68-20.7ZM109.62-0.04L110.99-17.35 113.47-17.35 112.1 0Q112.03 0.68 111.53 1.19L111.53 1.19 109.12 3.6 109.12 0.9 109.3 0.72Q109.48 0.58 109.53 0.38 109.58 0.18 109.62-0.04L109.62-0.04ZM121.86-17.35L123.23-0.04Q123.26 0.18 123.32 0.38 123.37 0.58 123.55 0.72L123.55 0.72 123.73 0.9 123.73 3.6 121.32 1.19Q120.82 0.68 120.74 0L120.74 0 119.38-17.35 121.86-17.35ZM126.76-6.95L139.36-6.95Q140.29-6.95 140.92-6.32 141.55-5.69 141.55-4.75L141.55-4.75 141.55 3.56Q141.55 4.5 140.92 5.13 140.29 5.76 139.36 5.76L139.36 5.76 126.76 5.76Q125.82 5.76 125.19 5.13 124.56 4.5 124.56 3.56L124.56 3.56 124.56-4.75Q124.56-5.69 125.19-6.32 125.82-6.95 126.76-6.95L126.76-6.95ZM136.19 3.2L136.19-4.39Q136.19-4.61 136.03-4.77 135.86-4.93 135.65-4.93L135.65-4.93 130.5-4.93Q130.28-4.93 130.12-4.77 129.96-4.61 129.96-4.39L129.96-4.39 129.96 3.2Q129.96 3.42 130.12 3.58 130.28 3.74 130.5 3.74L130.5 3.74 135.65 3.74Q135.86 3.74 136.03 3.58 136.19 3.42 136.19 3.2L136.19 3.2ZM170.1-23.87L170.1-16.27 178.88-16.27 178.88-14.26 177.48-14.26 177.48 5.76 172.26 5.76 172.26-14.26 170.1-14.26 170.1 0.25Q170.1 1.84 168.73 2.7L168.73 2.7 163.37 6.08 163.37 3.64 164.2 3.06Q164.63 2.74 164.63 2.27L164.63 2.27 164.63-24.23Q164.63-25.16 165.26-25.79 165.89-26.42 166.82-26.42L166.82-26.42 172.01-26.42Q172.3-26.42 172.53-26.55 172.76-26.68 172.87-26.96L172.87-26.96 173.2-27.79 178.88-27.79 178.09-25.88Q177.8-25.16 177.16-24.79 176.51-24.41 175.75-24.41L175.75-24.41 170.64-24.41Q170.42-24.41 170.26-24.25 170.1-24.08 170.1-23.87L170.1-23.87ZM161.6-21.82L161.6-4.14 163.33-4.14 163.33-2.12 145.12-2.12 145.12-4.14 146.84-4.14 146.84-21.82 145.48-21.82 145.48-23.83 146.84-23.83 146.84-27.68 152.53-27.68 152.53-23.83 155.92-23.83 155.92-27.68 161.6-27.68 161.6-23.83 162.97-23.83 162.97-21.82 161.6-21.82ZM155.92-21.82L152.53-21.82 152.53-17.24 155.92-17.24 155.92-21.82ZM152.53-15.23L152.53-10.69 155.92-10.69 155.92-15.23 152.53-15.23ZM152.53-8.68L152.53-4.14 155.92-4.14 155.92-8.68 152.53-8.68ZM145.15 6.08L147.53-0.72 153.22-0.72 150.84 6.08 145.15 6.08ZM155.12-0.72L160.81-0.72 163.19 6.08 157.5 6.08 155.12-0.72Z" transform="translate(-1.1200000047683716, 27.790000915527344)"></path></g> <!----> <!----> <!----> <!----> <!----> <!----> <!----></g></g> <g data-gra="path-slogan" fill-rule="" class="tp-slogan" fill="#1c085d" transform="translate(5,38.87000274658203)"><rect x="0" height="1" y="3.2300000190734863" width="46.59500503540039"></rect> <rect height="1" y="3.2300000190734863" width="42.59500503540039" x="125.16500473022461"></rect> <g transform="translate(49.59500503540039,0)"><g transform="scale(1)"><path d="M4.73-5.94L4.69-5.94L3.05 0L2.03 0L0.16-7.15L1.17-7.15L2.54-1.33L2.58-1.33L4.18-7.15L5.23-7.15L6.84-1.33L6.88-1.33L8.20-7.15L9.26-7.15L7.38 0L6.37 0L4.73-5.94ZM14.88-2.66L14.88-7.15L15.86-7.15L15.86-2.54Q15.74 0.04 12.93 0.12L12.93 0.12Q10.31 0.04 10.20-2.38L10.20-2.38L10.20-7.15L11.17-7.15L11.17-2.66Q11.21-0.70 12.97-0.66L12.97-0.66Q14.88-0.70 14.88-2.66L14.88-2.66ZM18.32-4.22L22.07-4.22L22.07-7.15L23.05-7.15L23.05 0L22.07 0L22.07-3.32L18.32-3.32L18.32 0L17.34 0L17.34-7.15L18.32-7.15L18.32-4.22ZM29.26 0L28.55-2.07L25.66-2.07L24.92 0L23.95 0L26.64-7.15L27.73-7.15L30.31 0L29.26 0ZM27.11-6.09L25.98-2.93L28.20-2.93L27.15-6.09L27.11-6.09ZM32.34-7.15L35.94-1.37L35.94-7.15L36.88-7.15L36.88 0L35.78 0L32.15-5.78L32.11-5.78L32.11 0L31.17 0L31.17-7.15L32.34-7.15ZM46.91-7.15L44.22-2.89L44.22 0L43.24 0L43.24-2.89L40.55-7.15L41.68-7.15L43.71-3.71L45.78-7.15L46.91-7.15ZM47.93-7.15L48.91-7.15L48.91 0L47.93 0L47.93-7.15ZM55.90-3.01L53.71-3.01L53.71-3.83L56.84-3.83L56.84 0L56.21 0L55.98-0.90Q55.16 0.08 53.63 0.12L53.63 0.12Q52.19 0.12 51.41-0.63L51.41-0.63Q50.23-1.72 50.27-3.63L50.27-3.63Q50.55-7.19 53.67-7.34L53.67-7.34Q56.33-7.19 56.72-5L56.72-5L55.78-5Q55.39-6.48 53.63-6.52L53.63-6.52Q51.41-6.37 51.29-3.59L51.29-3.59Q51.29-0.63 53.67-0.63L53.67-0.63Q54.53-0.63 55.16-1.09L55.16-1.09Q55.94-1.72 55.90-3.01L55.90-3.01ZM59.41-0.86L63.71-0.86L63.71 0L58.44 0L58.44-7.15L63.63-7.15L63.63-6.33L59.41-6.33L59.41-4.10L63.32-4.10L63.32-3.24L59.41-3.24L59.41-0.86ZM70.20-5.08L70.20-5.08L69.30-5.08Q69.22-6.45 67.50-6.52L67.50-6.52Q65.90-6.48 65.90-5.27L65.90-5.27Q65.90-4.49 66.76-4.38L66.76-4.38L68.79-3.91Q70.39-3.52 70.39-1.95L70.39-1.95Q70.35 0.04 67.58 0.12L67.58 0.12Q66.05 0.12 65.43-0.51L65.43-0.51Q64.65-1.09 64.69-2.30L64.69-2.30L65.63-2.30Q65.66-0.66 67.58-0.63L67.58-0.63Q69.45-0.66 69.49-1.84L69.49-1.84Q69.65-2.81 67.93-3.13L67.93-3.13L66.45-3.44Q64.92-3.87 64.92-5.16L64.92-5.16Q65.04-7.27 67.42-7.34L67.42-7.34Q70.12-7.34 70.20-5.08ZM71.76-7.15L72.73-7.15L72.73 0L71.76 0L71.76-7.15Z" transform="translate(-0.15625, 7.34375)"></path></g></g></g></g></g></g><mask id="e556d810-9306-471f-af6f-88d4fa9e2ce2"><g fill="white"><g><rect fill-opacity="1" stroke-width="2" x="0" y="0" width="95" height="99.2706221655625" class="image-rect"></rect> <svg x="0" y="0" width="95" height="99.2706221655625" filtersec="colorsb32666552" class="image-svg-svg primary" style="overflow: visible;"><svg viewBox="0 0.531999945640564 190.4739990234375 199.03599548339844" xmlns="http://www.w3.org/2000/svg"><g fill="none" fill-rule="evenodd"><path d="M116.992 179.84c-42.441-1.885-76.273-36.885-76.273-79.791 0-42.907 33.832-77.907 76.273-79.79a80.94 80.94 0 0 0-3.64-.086c-44.114 0-79.875 35.762-79.875 79.876 0 44.114 35.761 79.875 79.875 79.875 1.22 0 2.433-.03 3.64-.084"></path><path d="M113.436 187.04c-48.044 0-86.99-38.947-86.99-86.99 0-48.045 38.946-86.992 86.99-86.992 33.448 0 62.48 18.88 77.038 46.56C174.976 24.806 140.084.532 99.518.532 44.555.531 0 45.087 0 100.05s44.555 99.518 99.518 99.518c40.566 0 75.458-24.274 90.956-59.088-14.557 27.681-43.59 46.561-77.038 46.561"></path></g></svg></svg> </g></g> <g transform="translate(41.6199951171875,31.968435287475586)" fill="black" stroke="black" stroke-width="6" stroke-linejoin="round"><g data-gra="path-name" fill-rule="" class="tp-name" transform="translate(0,0)"><g transform="scale(1)"><g><path d="M34.74-25.6L34.74-19.4Q34.74-18.47 34.11-17.84 33.48-17.21 32.54-17.21L32.54-17.21 27.97-17.21 30.38 2.02Q30.49 2.7 31.07 2.84L31.07 2.84 34.52 3.89 34.52 6.05 27.07 4.25Q26.03 3.96 25.36 3.2 24.7 2.45 24.55 1.33L24.55 1.33 22.28-17.21 1.15-17.21 1.15-19.22 22.03-19.22 20.99-27.68 26.68-27.68 27.72-19.22 29.02-19.22Q29.23-19.22 29.39-19.39 29.56-19.55 29.56-19.76L29.56-19.76 29.56-25.6 34.74-25.6ZM19.98-25.81L19.98-23.8 2.74-23.8 2.74-25.81 19.98-25.81ZM17.1-7.49L17.1 2.48 22.9 2.02 22.9 4.03 1.12 5.83 1.12 3.82 2.99 3.67 2.99-12.35 8.68-12.35 8.68 3.2 11.41 2.95 11.41-14.72 17.1-14.72 17.1-9.5 22.25-9.5 22.25-7.49 17.1-7.49ZM41.08-11.99L37.12-19.98 41.94-19.98 38.05-27.79 44.03-27.79 48.02-19.8 43.2-19.8 47.09-11.99 41.08-11.99ZM69.91 3.64L70.96 4.03 70.96 6.05 64.87 4.18Q64.01 3.92 63.5 3.06L63.5 3.06 58.79-4.68 54.43 3.02Q53.96 3.92 52.99 4.25L52.99 4.25 47.12 6.05 47.12 4.03 48.13 3.64Q48.28 3.56 48.4 3.47 48.53 3.38 48.6 3.2L48.6 3.2 55.8-9.65 47.45-23.36 53.28-23.36 58.61-14.65 64.26-24.77Q64.44-25.02 64.3-25.25 64.15-25.49 63.86-25.49L63.86-25.49 47.45-25.49 47.45-27.5 68.04-27.5Q68.69-27.5 69.19-27.22 69.7-26.93 69.97-26.48 70.24-26.03 70.24-25.45 70.24-24.88 69.91-24.3L69.91-24.3 61.63-9.65 69.48 3.24Q69.59 3.42 69.91 3.64L69.91 3.64ZM47.88-11.05L47.88-8.93 46.76-8.35Q46.37-8.14 46.26-7.63L46.26-7.63 42.8 6.05 37.12 6.05 40.43-6.08Q40.75-7.24 41.35-8.06 41.94-8.89 43.02-9.29L43.02-9.29 47.88-11.05ZM106.88-16.74L106.88-14.72 105.16-14.72 105.16-6.3Q105.16-5.36 104.53-4.73 103.9-4.1 102.96-4.1L102.96-4.1 94.82-4.1 94.18 2.05Q94.07 3.1 93.44 3.78 92.81 4.46 91.84 4.68L91.84 4.68 85.25 6.08 85.25 4.07 87.62 3.53Q87.95 3.46 88.16 3.24 88.38 3.02 88.42 2.66L88.42 2.66 89.14-4.1 86.36-4.1 86.36-6.12 89.35-6.12 90.25-14.72 85.28-14.72 85.28-16.74 90.47-16.74 91.4-25.34 86.36-25.34 86.36-27.29 82.19-17.75Q81.58-16.34 80.17-15.77L80.17-15.77 82.84-15.77 82.84 6.05 77.15 6.05 77.15-15.16 73.12-14.47 73.12-16.49 74.81-16.81Q75.74-16.99 76.14-17.86L76.14-17.86 80.75-27.68 86.54-27.68 86.4-27.36 102.96-27.36Q103.9-27.36 104.53-26.73 105.16-26.1 105.16-25.16L105.16-25.16 105.16-16.74 106.88-16.74ZM97.09-25.34L96.16-16.74 99.47-16.74 99.47-24.8Q99.47-25.02 99.31-25.18 99.14-25.34 98.93-25.34L98.93-25.34 97.09-25.34ZM99.47-6.66L99.47-14.72 95.94-14.72 95.04-6.12 98.93-6.12Q99.14-6.12 99.31-6.28 99.47-6.44 99.47-6.66L99.47-6.66ZM122.8-20.34L118.98-20.34 118.98 6.08 113.87 6.08 113.87-20.34 109.62-20.34 109.62-22.36 113.87-22.36 113.87-27.68 118.98-27.68 118.98-22.36 122.8-22.36 122.8-20.34ZM123.08-7.92L130-15.23 127.33-18 123.08-18 126.32-27.68 131.76-27.68 130.86-24.95 139.9-24.95Q140.76-24.95 141.37-24.55 141.98-24.16 142.25-23.54 142.52-22.93 142.42-22.23 142.31-21.53 141.7-20.95L141.7-20.95 135.97-15.19 142.96-7.92 137.02-7.92 132.98-12.13 128.81-7.92 123.08-7.92ZM130.68-20.7L132.95-18.36 136.62-22.25Q136.8-22.46 136.69-22.7 136.58-22.93 136.3-22.93L136.3-22.93 130.18-22.93 129.42-20.7 130.68-20.7ZM109.62-0.04L110.99-17.35 113.47-17.35 112.1 0Q112.03 0.68 111.53 1.19L111.53 1.19 109.12 3.6 109.12 0.9 109.3 0.72Q109.48 0.58 109.53 0.38 109.58 0.18 109.62-0.04L109.62-0.04ZM121.86-17.35L123.23-0.04Q123.26 0.18 123.32 0.38 123.37 0.58 123.55 0.72L123.55 0.72 123.73 0.9 123.73 3.6 121.32 1.19Q120.82 0.68 120.74 0L120.74 0 119.38-17.35 121.86-17.35ZM126.76-6.95L139.36-6.95Q140.29-6.95 140.92-6.32 141.55-5.69 141.55-4.75L141.55-4.75 141.55 3.56Q141.55 4.5 140.92 5.13 140.29 5.76 139.36 5.76L139.36 5.76 126.76 5.76Q125.82 5.76 125.19 5.13 124.56 4.5 124.56 3.56L124.56 3.56 124.56-4.75Q124.56-5.69 125.19-6.32 125.82-6.95 126.76-6.95L126.76-6.95ZM136.19 3.2L136.19-4.39Q136.19-4.61 136.03-4.77 135.86-4.93 135.65-4.93L135.65-4.93 130.5-4.93Q130.28-4.93 130.12-4.77 129.96-4.61 129.96-4.39L129.96-4.39 129.96 3.2Q129.96 3.42 130.12 3.58 130.28 3.74 130.5 3.74L130.5 3.74 135.65 3.74Q135.86 3.74 136.03 3.58 136.19 3.42 136.19 3.2L136.19 3.2ZM170.1-23.87L170.1-16.27 178.88-16.27 178.88-14.26 177.48-14.26 177.48 5.76 172.26 5.76 172.26-14.26 170.1-14.26 170.1 0.25Q170.1 1.84 168.73 2.7L168.73 2.7 163.37 6.08 163.37 3.64 164.2 3.06Q164.63 2.74 164.63 2.27L164.63 2.27 164.63-24.23Q164.63-25.16 165.26-25.79 165.89-26.42 166.82-26.42L166.82-26.42 172.01-26.42Q172.3-26.42 172.53-26.55 172.76-26.68 172.87-26.96L172.87-26.96 173.2-27.79 178.88-27.79 178.09-25.88Q177.8-25.16 177.16-24.79 176.51-24.41 175.75-24.41L175.75-24.41 170.64-24.41Q170.42-24.41 170.26-24.25 170.1-24.08 170.1-23.87L170.1-23.87ZM161.6-21.82L161.6-4.14 163.33-4.14 163.33-2.12 145.12-2.12 145.12-4.14 146.84-4.14 146.84-21.82 145.48-21.82 145.48-23.83 146.84-23.83 146.84-27.68 152.53-27.68 152.53-23.83 155.92-23.83 155.92-27.68 161.6-27.68 161.6-23.83 162.97-23.83 162.97-21.82 161.6-21.82ZM155.92-21.82L152.53-21.82 152.53-17.24 155.92-17.24 155.92-21.82ZM152.53-15.23L152.53-10.69 155.92-10.69 155.92-15.23 152.53-15.23ZM152.53-8.68L152.53-4.14 155.92-4.14 155.92-8.68 152.53-8.68ZM145.15 6.08L147.53-0.72 153.22-0.72 150.84 6.08 145.15 6.08ZM155.12-0.72L160.81-0.72 163.19 6.08 157.5 6.08 155.12-0.72Z" transform="translate(-1.1200000047683716, 27.790000915527344)"></path></g>       </g></g> <g data-gra="path-slogan" fill-rule="" class="tp-slogan" transform="translate(5,38.87000274658203)"><rect x="0" height="1" y="3.2300000190734863" width="46.59500503540039"></rect> <rect height="1" y="3.2300000190734863" width="42.59500503540039" x="125.16500473022461"></rect> <g transform="translate(49.59500503540039,0)"><g transform="scale(1)"><path d="M4.73-5.94L4.69-5.94L3.05 0L2.03 0L0.16-7.15L1.17-7.15L2.54-1.33L2.58-1.33L4.18-7.15L5.23-7.15L6.84-1.33L6.88-1.33L8.20-7.15L9.26-7.15L7.38 0L6.37 0L4.73-5.94ZM14.88-2.66L14.88-7.15L15.86-7.15L15.86-2.54Q15.74 0.04 12.93 0.12L12.93 0.12Q10.31 0.04 10.20-2.38L10.20-2.38L10.20-7.15L11.17-7.15L11.17-2.66Q11.21-0.70 12.97-0.66L12.97-0.66Q14.88-0.70 14.88-2.66L14.88-2.66ZM18.32-4.22L22.07-4.22L22.07-7.15L23.05-7.15L23.05 0L22.07 0L22.07-3.32L18.32-3.32L18.32 0L17.34 0L17.34-7.15L18.32-7.15L18.32-4.22ZM29.26 0L28.55-2.07L25.66-2.07L24.92 0L23.95 0L26.64-7.15L27.73-7.15L30.31 0L29.26 0ZM27.11-6.09L25.98-2.93L28.20-2.93L27.15-6.09L27.11-6.09ZM32.34-7.15L35.94-1.37L35.94-7.15L36.88-7.15L36.88 0L35.78 0L32.15-5.78L32.11-5.78L32.11 0L31.17 0L31.17-7.15L32.34-7.15ZM46.91-7.15L44.22-2.89L44.22 0L43.24 0L43.24-2.89L40.55-7.15L41.68-7.15L43.71-3.71L45.78-7.15L46.91-7.15ZM47.93-7.15L48.91-7.15L48.91 0L47.93 0L47.93-7.15ZM55.90-3.01L53.71-3.01L53.71-3.83L56.84-3.83L56.84 0L56.21 0L55.98-0.90Q55.16 0.08 53.63 0.12L53.63 0.12Q52.19 0.12 51.41-0.63L51.41-0.63Q50.23-1.72 50.27-3.63L50.27-3.63Q50.55-7.19 53.67-7.34L53.67-7.34Q56.33-7.19 56.72-5L56.72-5L55.78-5Q55.39-6.48 53.63-6.52L53.63-6.52Q51.41-6.37 51.29-3.59L51.29-3.59Q51.29-0.63 53.67-0.63L53.67-0.63Q54.53-0.63 55.16-1.09L55.16-1.09Q55.94-1.72 55.90-3.01L55.90-3.01ZM59.41-0.86L63.71-0.86L63.71 0L58.44 0L58.44-7.15L63.63-7.15L63.63-6.33L59.41-6.33L59.41-4.10L63.32-4.10L63.32-3.24L59.41-3.24L59.41-0.86ZM70.20-5.08L70.20-5.08L69.30-5.08Q69.22-6.45 67.50-6.52L67.50-6.52Q65.90-6.48 65.90-5.27L65.90-5.27Q65.90-4.49 66.76-4.38L66.76-4.38L68.79-3.91Q70.39-3.52 70.39-1.95L70.39-1.95Q70.35 0.04 67.58 0.12L67.58 0.12Q66.05 0.12 65.43-0.51L65.43-0.51Q64.65-1.09 64.69-2.30L64.69-2.30L65.63-2.30Q65.66-0.66 67.58-0.63L67.58-0.63Q69.45-0.66 69.49-1.84L69.49-1.84Q69.65-2.81 67.93-3.13L67.93-3.13L66.45-3.44Q64.92-3.87 64.92-5.16L64.92-5.16Q65.04-7.27 67.42-7.34L67.42-7.34Q70.12-7.34 70.20-5.08ZM71.76-7.15L72.73-7.15L72.73 0L71.76 0L71.76-7.15Z" transform="translate(-0.15625, 7.34375)"></path></g></g></g></g></mask><defs v-gra="od"></defs></svg>